
<svg width="25px" height="25px" viewBox="0 0 25 25" version="1.1" xmlns="http://www.w3.org/2000/svg" xmlns:xlink="http://www.w3.org/1999/xlink">
    <!-- Generator: Sketch 48.2 (47327) - http://www.bohemiancoding.com/sketch -->
    <desc>Created with Sketch.</desc>
    <defs></defs>
    <g id="Welcome" stroke="none" stroke-width="1" fill="none" fill-rule="evenodd">
        <g id="Desktop-Non-Members" transform="translate(-1258.000000, -24.000000)" fill="#FFFFFF">
            <path d="M1267.97067,24 C1262.45836,24 1258,28.3561605 1258,33.7421203 C1258,39.1280802 1262.45836,43.4842407 1267.97067,43.4842407 C1269.93871,43.4842407 1271.76012,42.9200573 1273.3044,41.9621777 L1280.50733,49 L1283,46.5644699 L1275.88856,39.6338109 C1277.16686,37.9954155 1277.94135,35.965043 1277.94135,33.7421203 C1277.94135,28.3561605 1273.48299,24 1267.97067,24 Z M1267.5,26 C1271.65327,26 1275,29.3467308 1275,33.5 C1275,37.6532692 1271.65327,41 1267.5,41 C1263.34673,41 1260,37.6532692 1260,33.5 C1260,29.3467308 1263.34673,26 1267.5,26 Z" id="icons8-search-filled"></path>
        </g>
    </g>
</svg>